# xmcd
#
# Track frame offsets: 
#        182
#        12527
#        24092
#        37392
#        48055
#        61705
#        73775
#        87795
#        99660
#        112432
#        123835
#        137927
#        148590
#        162707
#        176545
#        189420
#        202142
#        212787
#        229305
#        252617
#
# Disc length: 3565 seconds
#
# Revision: 4
# Processed by: cddbd v1.4PL0 Copyright (c) Steve Scherf et al.
# Submitted via: ExactAudioCopy v0.95a3
#
DISCID=330deb14
DTITLE=Otis Rush - 1956 - 1958 Cobra Recordings
DYEAR=1900
DGENRE=Blues
TTITLE0=Double Trouble
TTITLE1=Jump Sister Bessie
TTITLE2=Checking On My Baby
TTITLE3=Sit Down
TTITLE4=Love That Woman
TTITLE5=My Baby Is A Good 'Un
TTITLE6=If You Were Mine
TTITLE7=All Your Love
TTITLE8=It Takes Time
TTITLE9=Violent Love
TTITLE10=I Can't Quit You Baby
TTITLE11=Little Red Rooster
TTITLE12=My Love Will Never Die
TTITLE13=Groaning The Blues
TTITLE14=Three Times A Fool
TTITLE15=She's A Good 'Un
TTITLE16=Keep On Loving Me Baby
TTITLE17=I Can't Quit You Baby
TTITLE18=Double Trouble
TTITLE19=She's A Good 'Un
EXTD=
EXTT0=
EXTT1=
EXTT2=
EXTT3=
EXTT4=
EXTT5=
EXTT6=
EXTT7=
EXTT8=
EXTT9=
EXTT10=
EXTT11=
EXTT12=
EXTT13=
EXTT14=
EXTT15=
EXTT16=
EXTT17=
EXTT18=
EXTT19=
PLAYORDER=
